<?xml version="1.0" encoding="UTF-8" standalone="no"?>
<svg
   xmlns:dc="http://purl.org/dc/elements/1.1/"
   xmlns:cc="http://creativecommons.org/ns#"
   xmlns:rdf="http://www.w3.org/1999/02/22-rdf-syntax-ns#"
   xmlns:svg="http://www.w3.org/2000/svg"
   xmlns="http://www.w3.org/2000/svg"
   xmlns:sodipodi="http://sodipodi.sourceforge.net/DTD/sodipodi-0.dtd"
   xmlns:inkscape="http://www.inkscape.org/namespaces/inkscape"
   width="900"
   height="200"
   viewBox="0 0 720 160"
   version="1.1"
   id="svg2"
   inkscape:version="0.48.0 r9654"
   sodipodi:docname="midgard3_bw.svg"
   inkscape:export-filename="/home/bergie/Downloads/midgard3_bw.png"
   inkscape:export-xdpi="90"
   inkscape:export-ydpi="90">
  <metadata
     id="metadata16">
    <rdf:RDF>
      <cc:Work
         rdf:about="">
        <dc:format>image/svg+xml</dc:format>
        <dc:type
           rdf:resource="http://purl.org/dc/dcmitype/StillImage" />
        <dc:title></dc:title>
      </cc:Work>
    </rdf:RDF>
  </metadata>
  <defs
     id="defs14">
    <inkscape:perspective
       sodipodi:type="inkscape:persp3d"
       inkscape:vp_x="0 : 86.25 : 1"
       inkscape:vp_y="0 : 1000 : 0"
       inkscape:vp_z="168.75 : 86.25 : 1"
       inkscape:persp3d-origin="84.375 : 57.5 : 1"
       id="perspective18" />
    <filter
       id="filter3801"
       inkscape:label="Invert"
       x="0"
       y="0"
       width="1"
       height="1"
       inkscape:menu="Color"
       inkscape:menu-tooltip="Invert colors"
       color-interpolation-filters="sRGB">
      <feColorMatrix
         id="feColorMatrix3803"
         type="saturate"
         values="1"
         result="fbSourceGraphic" />
      <feColorMatrix
         id="feColorMatrix3805"
         in="fbSourceGraphic"
         values="-1 0 0 0 1 0 -1 0 0 1 0 0 -1 0 1 0 0 0 1 0 " />
    </filter>
    <filter
       id="filter3807"
       inkscape:label="Invert"
       x="0"
       y="0"
       width="1"
       height="1"
       inkscape:menu="Color"
       inkscape:menu-tooltip="Invert colors"
       color-interpolation-filters="sRGB">
      <feColorMatrix
         id="feColorMatrix3809"
         type="saturate"
         values="1"
         result="fbSourceGraphic" />
      <feColorMatrix
         id="feColorMatrix3811"
         in="fbSourceGraphic"
         values="-1 0 0 0 1 0 -1 0 0 1 0 0 -1 0 1 0 0 0 1 0 " />
    </filter>
    <filter
       id="filter3813"
       inkscape:label="Invert"
       x="0"
       y="0"
       width="1"
       height="1"
       inkscape:menu="Color"
       inkscape:menu-tooltip="Invert colors"
       color-interpolation-filters="sRGB">
      <feColorMatrix
         id="feColorMatrix3815"
         type="saturate"
         values="1"
         result="fbSourceGraphic" />
      <feColorMatrix
         id="feColorMatrix3817"
         in="fbSourceGraphic"
         values="-1 0 0 0 1 0 -1 0 0 1 0 0 -1 0 1 0 0 0 1 0 " />
    </filter>
    <filter
       id="filter3819"
       inkscape:label="Invert"
       x="0"
       y="0"
       width="1"
       height="1"
       inkscape:menu="Color"
       inkscape:menu-tooltip="Invert colors"
       color-interpolation-filters="sRGB">
      <feColorMatrix
         id="feColorMatrix3821"
         type="saturate"
         values="1"
         result="fbSourceGraphic" />
      <feColorMatrix
         id="feColorMatrix3823"
         in="fbSourceGraphic"
         values="-1 0 0 0 1 0 -1 0 0 1 0 0 -1 0 1 0 0 0 1 0 " />
    </filter>
    <filter
       id="filter3825"
       inkscape:label="Invert"
       x="0"
       y="0"
       width="1"
       height="1"
       inkscape:menu="Color"
       inkscape:menu-tooltip="Invert colors"
       color-interpolation-filters="sRGB">
      <feColorMatrix
         id="feColorMatrix3827"
         type="saturate"
         values="1"
         result="fbSourceGraphic" />
      <feColorMatrix
         id="feColorMatrix3829"
         in="fbSourceGraphic"
         values="-1 0 0 0 1 0 -1 0 0 1 0 0 -1 0 1 0 0 0 1 0 " />
    </filter>
    <filter
       id="filter3831"
       inkscape:label="Invert"
       x="0"
       y="0"
       width="1"
       height="1"
       inkscape:menu="Color"
       inkscape:menu-tooltip="Invert colors"
       color-interpolation-filters="sRGB">
      <feColorMatrix
         id="feColorMatrix3833"
         type="saturate"
         values="1"
         result="fbSourceGraphic" />
      <feColorMatrix
         id="feColorMatrix3835"
         in="fbSourceGraphic"
         values="-1 0 0 0 1 0 -1 0 0 1 0 0 -1 0 1 0 0 0 1 0 " />
    </filter>
    <filter
       id="filter3837"
       inkscape:label="Invert"
       x="0"
       y="0"
       width="1"
       height="1"
       inkscape:menu="Color"
       inkscape:menu-tooltip="Invert colors"
       color-interpolation-filters="sRGB">
      <feColorMatrix
         id="feColorMatrix3839"
         type="saturate"
         values="1"
         result="fbSourceGraphic" />
      <feColorMatrix
         id="feColorMatrix3841"
         in="fbSourceGraphic"
         values="-1 0 0 0 1 0 -1 0 0 1 0 0 -1 0 1 0 0 0 1 0 " />
    </filter>
    <filter
       id="filter3843"
       inkscape:label="Invert"
       x="0"
       y="0"
       width="1"
       height="1"
       inkscape:menu="Color"
       inkscape:menu-tooltip="Invert colors"
       color-interpolation-filters="sRGB">
      <feColorMatrix
         id="feColorMatrix3845"
         type="saturate"
         values="1"
         result="fbSourceGraphic" />
      <feColorMatrix
         id="feColorMatrix3847"
         in="fbSourceGraphic"
         values="-1 0 0 0 1 0 -1 0 0 1 0 0 -1 0 1 0 0 0 1 0 " />
    </filter>
    <filter
       id="filter3849"
       inkscape:label="Invert"
       x="0"
       y="0"
       width="1"
       height="1"
       inkscape:menu="Color"
       inkscape:menu-tooltip="Invert colors"
       color-interpolation-filters="sRGB">
      <feColorMatrix
         id="feColorMatrix3851"
         type="saturate"
         values="1"
         result="fbSourceGraphic" />
      <feColorMatrix
         id="feColorMatrix3853"
         in="fbSourceGraphic"
         values="-1 0 0 0 1 0 -1 0 0 1 0 0 -1 0 1 0 0 0 1 0 " />
    </filter>
    <filter
       id="filter3855"
       inkscape:label="Invert"
       x="0"
       y="0"
       width="1"
       height="1"
       inkscape:menu="Color"
       inkscape:menu-tooltip="Invert colors"
       color-interpolation-filters="sRGB">
      <feColorMatrix
         id="feColorMatrix3857"
         type="saturate"
         values="1"
         result="fbSourceGraphic" />
      <feColorMatrix
         id="feColorMatrix3859"
         in="fbSourceGraphic"
         values="-1 0 0 0 1 0 -1 0 0 1 0 0 -1 0 1 0 0 0 1 0 " />
    </filter>
  </defs>
  <sodipodi:namedview
     pagecolor="#ffffff"
     bordercolor="#666666"
     borderopacity="1"
     objecttolerance="10"
     gridtolerance="10"
     guidetolerance="10"
     inkscape:pageopacity="0"
     inkscape:pageshadow="2"
     inkscape:window-width="1366"
     inkscape:window-height="715"
     id="namedview12"
     showgrid="true"
     inkscape:zoom="2.8284271"
     inkscape:cx="482.50218"
     inkscape:cy="68.040497"
     inkscape:window-x="0"
     inkscape:window-y="24"
     inkscape:window-maximized="1"
     inkscape:current-layer="svg2"
     inkscape:snap-bbox="true"
     inkscape:snap-nodes="false"
     inkscape:snap-grids="false"
     showguides="true"
     inkscape:guide-bbox="true">
    <inkscape:grid
       type="xygrid"
       id="grid3949"
       empspacing="5"
       visible="true"
       enabled="true"
       snapvisiblegridlinesonly="true" />
  </sodipodi:namedview>
  <path
     style="fill:none;fill-opacity:1;stroke:#000000;stroke-width:3.44000052999999983;stroke-linejoin:miter;stroke-miterlimit:4;stroke-opacity:1;stroke-dashoffset:0;filter:url(#filter3801)"
     d="m 413.25424,26.712698 60.52732,91.739862 -121.05465,0 z"
     id="rect4206-9"
     inkscape:connector-curvature="0"
     sodipodi:nodetypes="cccc" />
  <path
     style="fill:none;stroke:#000000;stroke-width:3.41583228000000005;stroke-linejoin:miter;stroke-miterlimit:4;stroke-opacity:1;stroke-dashoffset:0;filter:url(#filter3807)"
     d="m 548.78791,41.175632 c 1.74999,2.56052 7.35209,12.981367 41.21239,13.405547 25.54607,0.03087 37.40545,-9.744238 39.21177,-12.814126 l 0,68.342467 c 0,0 -9.35083,12.12773 -39.62626,12.12773 -30.27543,0 -40.7979,-12.12773 -40.7979,-12.12773 z"
     id="rect4140"
     inkscape:connector-curvature="0"
     sodipodi:nodetypes="cccczcc"
     inkscape:export-xdpi="90"
     inkscape:export-ydpi="90" />
  <path
     style="fill:none;fill-opacity:1;stroke:#000000;stroke-width:4.29999999999999982;stroke-linejoin:miter;stroke-miterlimit:4;stroke-opacity:1;stroke-dasharray:none;stroke-dashoffset:0;filter:url(#filter3813)"
     d="M 286 33.1875 C 276.26598 33.1875 268.375 41.585425 268.375 51.9375 C 268.375 55.430225 269.2795 58.70055 270.84375 61.5 L 234.5 61.5 L 234.5 95.125 C 231.68815 93.481432 228.42952 92.53125 224.9375 92.53125 C 214.44216 92.53125 205.9375 101.03591 205.9375 111.53125 C 205.9375 122.02659 214.44216 130.53125 224.9375 130.53125 C 228.42952 130.53125 231.68815 129.54982 234.5 127.90625 L 234.5 164 L 274.96875 164 C 273.26898 161.59624 272.25 158.66797 272.25 155.5 C 272.25 147.3538 278.8538 140.75 287 140.75 C 295.1462 140.75 301.75 147.3538 301.75 155.5 C 301.75 158.66797 300.73103 161.59624 299.03125 164 L 337 164 L 337 127.75 C 340.18981 129.70765 344.00113 130.875 348.09375 130.875 C 359.32113 130.875 368.40625 122.31245 368.40625 111.75 C 368.40625 101.18755 359.32112 92.625 348.09375 92.625 C 344.00113 92.625 340.18981 93.79235 337 95.75 L 337 61.5 L 301.15625 61.5 C 302.7205 58.70055 303.625 55.430225 303.625 51.9375 C 303.625 41.585425 295.73402 33.1875 286 33.1875 z "
     transform="scale(0.8,0.8)"
     id="rect3974" />
  <path
     d="m 9.9311085,34.854813 107.5360915,0 0,111.120887 -107.5360915,0 0,-111.120887 z"
     id="path4"
     style="fill:none;stroke:#efba3c;stroke-width:0.07508268000000000;filter:url(#filter3819)"
     inkscape:connector-curvature="0" />
  <path
     style="fill:#000000;stroke:#6b4e2d;stroke-width:0.11718750000000000;fill-opacity:1;filter:url(#filter3825)"
     d="M 75.65625 48.78125 C 53.925293 49.230774 33.0625 63.34375 24.625 83.5 C 18.5 97.25 18.625 113.625 25 127.375 C 32.625 144.75 49.5 157 67.875 160.75 C 71.625 166.125 75.875 171.25 79 177 C 82.625 171.625 86.625 166.5 90.125 161 C 101.75 158.125 113.125 152.875 121.875 144.375 C 131.125 134.75 137.25 122.125 138.25 108.75 C 139.375 93.875 133.625 78.75 123.625 67.75 C 112.5 55.875 96.5 48.125 80 48.875 C 78.546875 48.78125 77.10498 48.751282 75.65625 48.78125 z M 79.5 53 C 86.654541 52.998779 93.8125 54.3125 100.375 57.125 C 114.25 62.625 125.625 74 130.75 88 C 135.375 101.5 134.375 117.125 127.125 129.625 C 119.375 143.625 104.625 154 88.625 156 C 85.125 160 82.375 164.5 79.25 168.75 C 76.375 165.125 73.875 161.125 71.125 157.5 C 70.125 156 68.25 156 66.75 155.625 C 49.375 152 33.875 139.25 27.875 122.375 C 24.375 112.875 23.375 102.375 26.25 92.5 C 31 73.375 47.625 58.5 66.75 54.375 C 70.921875 53.484375 75.207275 53.000732 79.5 53 z "
     transform="scale(0.8,0.8)"
     id="path6" />
  <path
     d="m 41.3,66.3 c 2,-0.1 4,-0.1 5.9,-0.1 0.1,0.6 0.2,1.9 0.3,2.5 5.2,-3.7 12.3,-2 16.6,2.4 3.8,-4.3 10.6,-5.9 15.7,-3 3.9,2.1 6.8,6.3 6.8,10.8 0,6.9 0.1,13.8 0,20.7 -0.5,2.9 -4.9,3 -5.8,0.3 C 80.4,93 80.9,86.1 80.6,79.2 80.5,76.1 78,73.3 75,72.8 c -3.8,-0.7 -7.8,2.3 -8,6.1 -0.5,7 0.3,14.1 -0.3,21.1 -0.8,3 -5.8,2.2 -5.7,-0.9 C 60.7,92.4 61.1,85.7 60.9,79 60.8,74.8 56,71.6 52.1,73 c -3,0.9 -4.9,3.9 -4.8,7 0,7.1 0,14.3 0.1,21.4 -2.1,0 -4.1,0.1 -6.1,0.1 0.1,-11.8 0,-23.5 0,-35.2 z"
     id="path10"
     inkscape:connector-curvature="0"
     style="fill:#000000;stroke:#000000;stroke-width:0.09375000000000000;stroke-opacity:1;filter:url(#filter3831)" />
  <path
     style="fill:#000000;stroke:#000000;stroke-width:0.09375000000000000;stroke-opacity:1;filter:url(#filter3837)"
     inkscape:connector-curvature="0"
     d="m 390.58201,66.768579 c 2,-0.1 4,-0.1 5.9,-0.1 0.1,0.6 0.2,1.9 0.3,2.5 5.2,-3.7 12.3,-2 16.6,2.4 3.8,-4.3 10.6,-5.9 15.7,-3 3.9,2.1 6.8,6.3 6.8,10.8 0,6.9 0.1,13.8 0,20.700001 -0.5,2.9 -4.9,3 -5.8,0.3 -0.4,-6.900001 0.1,-13.800001 -0.2,-20.700001 -0.1,-3.1 -2.6,-5.9 -5.6,-6.4 -3.8,-0.7 -7.8,2.3 -8,6.1 -0.5,7 0.3,14.1 -0.3,21.100001 -0.8,3 -5.8,2.2 -5.7,-0.900001 -0.3,-6.7 0.1,-13.4 -0.1,-20.1 -0.1,-4.2 -4.9,-7.4 -8.8,-6 -3,0.9 -4.9,3.9 -4.8,7 0,7.1 0,14.3 0.1,21.400001 -2.1,0 -4.1,0.1 -6.1,0.1 0.1,-11.800001 0,-23.500001 0,-35.200001 z"
     id="path10-6-4" />
  <path
     sodipodi:type="arc"
     style="fill:none;stroke:#000000;stroke-width:3.91314029999999979;stroke-linejoin:round;stroke-miterlimit:4;stroke-opacity:1;stroke-dasharray:none;stroke-dashoffset:0;filter:url(#filter3843)"
     id="path3927"
     sodipodi:cx="693.65466"
     sodipodi:cy="25.217161"
     sodipodi:rx="41.663136"
     sodipodi:ry="20.831568"
     d="m 735.3178,25.217161 a 41.663136,20.831568 0 1 1 -83.32627,0 41.663136,20.831568 0 1 1 83.32627,0 z"
     transform="matrix(0.96599775,0,0,0.8,-81.087,16.787715)" />
  <path
     style="fill:#000000;stroke:#000000;stroke-width:0.09375000000000000;stroke-opacity:1;filter:url(#filter3849)"
     inkscape:connector-curvature="0"
     d="m 566.51528,63.568579 c 2,-0.1 4,-0.1 5.9,-0.1 0.1,0.6 0.2,1.9 0.3,2.5 5.2,-3.7 12.3,-2 16.6,2.4 3.8,-4.3 10.6,-5.9 15.7,-3 3.9,2.1 6.8,6.3 6.8,10.8 0,6.9 0.1,13.8 0,20.7 -0.5,2.9 -4.9,3 -5.8,0.3 -0.4,-6.9 0.1,-13.8 -0.2,-20.7 -0.1,-3.1 -2.6,-5.9 -5.6,-6.4 -3.8,-0.7 -7.8,2.3 -8,6.1 -0.5,7 0.3,14.1 -0.3,21.1 -0.8,3.000001 -5.8,2.2 -5.7,-0.9 -0.3,-6.7 0.1,-13.4 -0.1,-20.1 -0.1,-4.2 -4.9,-7.4 -8.8,-6 -3,0.9 -4.9,3.9 -4.8,7 0,7.1 0,14.3 0.1,21.4 -2.1,0 -4.1,0.1 -6.1,0.1 0.1,-11.8 0,-23.5 0,-35.2 z"
     id="path10-6-4-1" />
  <path
     style="fill:#000000;stroke:#000000;stroke-width:0.09375000000000000;stroke-opacity:1;filter:url(#filter3855)"
     inkscape:connector-curvature="0"
     d="m 205.86322,66.768576 c 2,-0.1 4,-0.1 5.9,-0.1 0.1,0.6 0.2,1.9 0.3,2.5 5.2,-3.7 12.3,-2 16.6,2.4 3.8,-4.3 10.6,-5.9 15.7,-3 3.9,2.1 6.8,6.3 6.8,10.8 0,6.9 0.1,13.8 0,20.700004 -0.5,2.9 -4.9,3 -5.8,0.3 -0.4,-6.900004 0.1,-13.800004 -0.2,-20.700004 -0.1,-3.1 -2.6,-5.9 -5.6,-6.4 -3.8,-0.7 -7.8,2.3 -8,6.1 -0.5,7 0.3,14.1 -0.3,21.100004 -0.8,3 -5.8,2.2 -5.7,-0.900004 -0.3,-6.7 0.1,-13.4 -0.1,-20.1 -0.1,-4.2 -4.9,-7.4 -8.8,-6 -3,0.9 -4.9,3.9 -4.8,7 0,7.1 0,14.3 0.1,21.400004 -2.1,0 -4.1,0.1 -6.1,0.1 0.1,-11.800004 0,-23.500004 0,-35.200004 z"
     id="path10-6-4-0" />
</svg>
