<?xml version="1.0" encoding="UTF-8" standalone="no"?>
<!-- Created with Inkscape (http://www.inkscape.org/) -->

<svg
   xmlns:dc="http://purl.org/dc/elements/1.1/"
   xmlns:cc="http://creativecommons.org/ns#"
   xmlns:rdf="http://www.w3.org/1999/02/22-rdf-syntax-ns#"
   xmlns:svg="http://www.w3.org/2000/svg"
   xmlns="http://www.w3.org/2000/svg"
   xmlns:sodipodi="http://sodipodi.sourceforge.net/DTD/sodipodi-0.dtd"
   xmlns:inkscape="http://www.inkscape.org/namespaces/inkscape"
   width="297mm"
   height="210mm"
   id="svg3352"
   version="1.1"
   inkscape:version="0.48.2 r9819"
   sodipodi:docname="New document 10">
  <defs
     id="defs3354" />
  <sodipodi:namedview
     inkscape:document-units="mm"
     pagecolor="#ffffff"
     bordercolor="#666666"
     borderopacity="1.0"
     inkscape:pageopacity="0.0"
     inkscape:pageshadow="2"
     inkscape:zoom="1.4142136"
     inkscape:cx="225.10239"
     inkscape:cy="380"
     inkscape:current-layer="layer1"
     id="namedview3356"
     showgrid="false"
     inkscape:window-width="1366"
     inkscape:window-height="714"
     inkscape:window-x="0"
     inkscape:window-y="26"
     inkscape:window-maximized="1" />
  <metadata
     id="metadata3358">
    <rdf:RDF>
      <cc:Work
         rdf:about="">
        <dc:format>image/svg+xml</dc:format>
        <dc:type
           rdf:resource="http://purl.org/dc/dcmitype/StillImage" />
        <dc:title></dc:title>
      </cc:Work>
    </rdf:RDF>
  </metadata>
  <g
     inkscape:label="Layer 1"
     inkscape:groupmode="layer"
     id="layer1">
    <path
       style="fill:none;stroke:#000000;stroke-width:4.26979017;stroke-linejoin:miter;stroke-miterlimit:4;stroke-opacity:1;stroke-dashoffset:0"
       d="m 175.48166,282.67968 c 2.18749,3.20065 9.19011,16.22671 51.51549,16.75693 31.93258,0.0386 46.7568,-12.18029 49.0147,-16.01765 l 0,85.42808 c 0,0 -11.68853,15.15967 -49.53282,15.15967 -37.84428,0 -50.99737,-15.15967 -50.99737,-15.15967 z"
       id="rect4140"
       inkscape:connector-curvature="0"
       sodipodi:nodetypes="cccczcc"
       inkscape:export-xdpi="90"
       inkscape:export-ydpi="90" />
    <path
       sodipodi:type="arc"
       style="fill:none;stroke:#000000;stroke-width:3.9131403;stroke-linejoin:round;stroke-miterlimit:4;stroke-opacity:1;stroke-dasharray:none;stroke-dashoffset:0"
       id="path3927"
       sodipodi:cx="693.65466"
       sodipodi:cy="25.217161"
       sodipodi:rx="41.663136"
       sodipodi:ry="20.831568"
       d="m 735.3178,25.217161 a 41.663136,20.831568 0 1 1 -83.32627,0 41.663136,20.831568 0 1 1 83.32627,0 z"
       transform="matrix(1.2074972,0,0,1,-611.86198,252.19478)" />
    <path
       style="fill:#000000;stroke:#000000;stroke-width:0.1171875;stroke-opacity:1"
       inkscape:connector-curvature="0"
       d="m 197.64087,310.67086 c 2.5,-0.125 5,-0.125 7.375,-0.125 0.125,0.75 0.25,2.375 0.375,3.125 6.5,-4.625 15.375,-2.5 20.75,3 4.75,-5.375 13.25,-7.375 19.625,-3.75 4.875,2.625 8.5,7.875 8.5,13.5 0,8.625 0.125,17.25 0,25.875 -0.625,3.62501 -6.125,3.75001 -7.25,0.375 -0.5,-8.625 0.125,-17.25 -0.25,-25.875 -0.125,-3.875 -3.25,-7.375 -7,-8 -4.75,-0.875 -9.75,2.875 -10,7.625 -0.625,8.75 0.375,17.625 -0.375,26.375 -1,3.75001 -7.25,2.75001 -7.125,-1.125 -0.375,-8.375 0.125,-16.75 -0.125,-25.125 -0.125,-5.25 -6.125,-9.25 -11,-7.5 -3.75,1.125 -6.125,4.875 -6,8.75 0,8.875 0,17.875 0.125,26.75001 -2.625,0 -5.125,0.125 -7.625,0.125 0.125,-14.75001 0,-29.37501 0,-44.00001 z"
       id="path10-6-4-1" />
    <flowRoot
       xml:space="preserve"
       id="flowRoot3372"
       style="font-size:64px;font-style:normal;font-weight:normal;line-height:125%;letter-spacing:0px;word-spacing:0px;fill:#000000;fill-opacity:1;stroke:none;font-family:Cantarell;-inkscape-font-specification:Cantarell;font-stretch:normal;font-variant:normal;text-anchor:start;text-align:start;writing-mode:lr"
       transform="translate(-4.2426407,34.526912)"><flowRegion
         id="flowRegion3374"><rect
           id="rect3376"
           width="390.32294"
           height="140.71425"
           x="291.328"
           y="256.1908"
           style="-inkscape-font-specification:Cantarell;font-family:Cantarell;font-weight:normal;font-style:normal;font-stretch:normal;font-variant:normal;font-size:64px;text-anchor:start;text-align:start;writing-mode:lr;line-height:125%" /></flowRegion><flowPara
         id="flowPara3378"
         style="font-size:64px;font-style:normal;font-variant:normal;font-weight:normal;font-stretch:normal;text-align:start;line-height:125%;writing-mode:lr;text-anchor:start;font-family:Cantarell;-inkscape-font-specification:Cantarell">Midgard2</flowPara></flowRoot>  </g>
</svg>
